<svg version="1.1" id="Layer_1" xmlns="http://www.w3.org/2000/svg" xmlns:xlink="http://www.w3.org/1999/xlink" x="0px" y="0px"
	 width="100%" viewBox="0 0 458 162" enable-background="new 0 0 458 162" xml:space="preserve">
<path fill="#FFFFFF" opacity="1.000000" stroke="none" 
	d="
M459.000000,161.000000 
	C458.668091,161.666672 458.454987,162.783813 457.980286,162.909042 
	C456.891052,163.196335 455.674255,163.000000 454.509247,163.000000 
	C354.651398,163.000000 254.793549,163.000000 154.636902,162.648254 
	C160.841843,161.414551 166.343262,158.668015 171.321503,154.292709 
	C180.913254,145.862701 182.704269,134.365753 182.800308,122.963287 
	C183.054962,92.727249 182.626236,62.475388 181.843246,32.246040 
	C181.561890,21.384146 174.365768,7.550397 160.559097,3.870415 
	C157.034760,2.931045 153.519455,1.957724 150.000000,1.000001 
	C251.500000,1.000000 353.000000,0.995697 454.499969,1.041543 
	C456.000122,1.042221 457.500000,1.666670 458.531342,2.500001 
	C435.819550,3.000000 413.576447,3.000000 391.324402,3.000000 
	C391.324402,55.982437 391.324402,108.329124 391.324402,161.000000 
	C414.098206,161.000000 436.549103,161.000000 459.000000,161.000000 
M302.482269,3.127627 
	C302.116638,3.314057 302.011414,3.597258 302.029510,4.908408 
	C302.019684,35.500572 301.986938,66.092751 302.007904,96.684891 
	C302.022400,117.796799 302.111053,138.908646 302.127655,160.517792 
	C302.127655,160.517792 302.479889,160.870880 302.479889,160.870880 
	C302.479889,160.870880 302.977234,160.833450 303.908417,160.970428 
	C324.612427,160.924774 345.316406,160.879105 366.517700,160.872391 
	C366.883362,160.685974 366.988617,160.402786 367.229523,159.260361 
	C367.430847,152.500061 367.632141,145.739777 367.872345,138.482208 
	C367.685883,138.116638 367.402710,138.011429 366.091583,138.029556 
	C353.164795,138.029556 340.238007,138.029556 327.000000,138.029556 
	C327.000000,131.210175 327.007294,125.069839 326.998779,118.929527 
	C326.945648,80.612854 326.888977,42.296181 326.872345,3.482233 
	C326.685913,3.116618 326.402710,3.011388 325.091614,3.029553 
	C317.720947,3.075217 310.350250,3.120882 302.482269,3.127627 
M241.913116,114.280769 
	C241.949921,113.949554 241.913544,113.588722 242.033905,113.291328 
	C252.372192,87.748360 262.159760,61.960564 273.329285,36.785957 
	C278.297852,25.587479 278.052643,14.632609 277.803802,3.266274 
	C254.297104,3.266274 231.368149,3.266274 208.328140,3.266274 
	C208.328140,10.920071 208.328140,18.304016 208.328140,26.190517 
	C222.682419,26.190517 236.715378,26.190517 251.293335,26.190517 
	C249.362579,30.525187 247.598053,34.184460 246.079758,37.943192 
	C234.356689,66.965126 223.156281,96.211212 210.761749,124.942589 
	C205.668213,136.749725 203.945145,148.331116 205.472916,160.754517 
	C229.661407,160.754517 253.589905,160.754517 277.692657,160.754517 
	C277.692657,153.122910 277.692657,145.739639 277.692657,138.033997 
	C262.464050,138.033997 247.537735,138.033997 231.965515,138.033997 
	C235.292480,130.008804 238.410767,122.486969 241.913116,114.280769 
z"/>
<path fill="#F9C517" opacity="1.000000" stroke="none" 
	d="
M1.000000,161.000000 
	C1.000000,108.645775 1.000000,56.291542 1.468657,3.468657 
	C10.768324,3.000130 19.599344,3.007245 28.430338,2.995506 
	C30.652866,2.992552 32.346527,2.940104 33.098038,6.019833 
	C38.929695,29.918283 45.001095,53.758419 51.045834,77.604553 
	C52.488907,83.297401 54.110794,88.944923 55.650436,94.613297 
	C56.120026,94.526894 56.589619,94.440498 57.059208,94.354103 
	C57.059208,64.027382 57.059208,33.700668 57.059208,3.359105 
	C64.650467,3.359105 71.702423,3.359105 78.591522,3.359105 
	C78.591522,56.094540 78.591522,108.469955 78.591522,160.764984 
	C69.884613,160.764984 61.588085,160.764984 53.377609,160.764984 
	C43.639896,123.150002 33.964306,85.774986 24.288715,48.399967 
	C23.830667,48.474609 23.372622,48.549255 22.914574,48.623898 
	C22.914574,85.960922 22.914574,123.297943 22.914574,161.000000 
	C15.266921,161.000000 8.133460,161.000000 1.000000,161.000000 
z"/>
<path fill="#FFFFFF" opacity="1.000000" stroke="none" 
	d="
M0.999999,161.500000 
	C8.133460,161.000000 15.266921,161.000000 22.914574,161.000000 
	C22.914574,123.297943 22.914574,85.960922 22.914574,48.623898 
	C23.372622,48.549255 23.830667,48.474609 24.288715,48.399967 
	C33.964306,85.774986 43.639896,123.150002 53.377609,160.764984 
	C61.588085,160.764984 69.884613,160.764984 78.591522,160.764984 
	C78.591522,108.469955 78.591522,56.094540 78.591522,3.359105 
	C71.702423,3.359105 64.650467,3.359105 57.059208,3.359105 
	C57.059208,33.700668 57.059208,64.027382 57.059208,94.354103 
	C56.589619,94.440498 56.120026,94.526894 55.650436,94.613297 
	C54.110794,88.944923 52.488907,83.297401 51.045834,77.604553 
	C45.001095,53.758419 38.929695,29.918283 33.098038,6.019833 
	C32.346527,2.940104 30.652866,2.992552 28.430338,2.995506 
	C19.599344,3.007245 10.768324,3.000130 1.468657,3.000000 
	C1.330199,2.333333 1.541351,1.215981 2.014624,1.090968 
	C3.101780,0.803802 4.316614,1.000000 5.479623,1.000000 
	C49.673977,1.000000 93.868332,1.000000 138.349976,1.359472 
	C125.473099,2.956303 115.501457,9.000384 110.912582,21.720387 
	C108.788918,27.607052 107.195122,34.064960 107.181023,40.268021 
	C107.113106,70.135086 107.398666,100.009972 108.114708,129.868759 
	C108.454445,144.035095 114.791924,154.914597 128.678818,160.384857 
	C129.645874,160.765793 130.235077,162.105927 131.000000,163.000000 
	C89.000000,163.000000 46.999989,163.009201 5.000051,162.957977 
	C3.666312,162.956345 2.333332,162.333344 0.999999,161.500000 
z"/>
<path fill="#F9C517" opacity="1.000000" stroke="none" 
	d="
M131.468628,163.000000 
	C130.235077,162.105927 129.645874,160.765793 128.678818,160.384857 
	C114.791924,154.914597 108.454445,144.035095 108.114708,129.868759 
	C107.398666,100.009972 107.113106,70.135086 107.181023,40.268021 
	C107.195122,34.064960 108.788918,27.607052 110.912582,21.720387 
	C115.501457,9.000384 125.473099,2.956303 138.818634,1.359472 
	C142.361282,1.000000 145.722580,1.000000 149.541931,1.000001 
	C153.519455,1.957724 157.034760,2.931045 160.559097,3.870415 
	C174.365768,7.550397 181.561890,21.384146 181.843246,32.246040 
	C182.626236,62.475388 183.054962,92.727249 182.800308,122.963287 
	C182.704269,134.365753 180.913254,145.862701 171.321503,154.292709 
	C166.343262,158.668015 160.841843,161.414551 154.169067,162.648254 
	C146.645752,163.000000 139.291504,163.000000 131.468628,163.000000 
M158.000000,105.499992 
	C157.999985,83.541374 158.088776,61.582012 157.905228,39.624931 
	C157.877380,36.294827 156.975510,32.827423 155.787689,29.684372 
	C153.839859,24.530220 149.258865,23.898581 144.401413,23.968845 
	C139.811783,24.035238 135.787125,25.210163 134.123596,29.859316 
	C132.989822,33.027905 132.108780,36.487663 132.089783,39.822784 
	C131.931549,67.602859 131.968246,95.384315 132.044647,123.165085 
	C132.053146,126.250122 132.447922,129.380661 133.068802,132.406952 
	C134.095596,137.411804 139.109955,141.129227 144.846756,140.941635 
	C151.461044,140.725357 156.528503,137.197769 156.907227,132.215027 
	C157.557068,123.665047 157.664719,115.073860 158.000000,105.499992 
z"/>
<path fill="#F9C517" opacity="1.000000" stroke="none" 
	d="
M459.000000,160.531372 
	C436.549103,161.000000 414.098206,161.000000 391.324402,161.000000 
	C391.324402,108.329124 391.324402,55.982437 391.324402,3.000000 
	C413.576447,3.000000 435.819550,3.000000 458.531342,3.000000 
	C459.000000,10.354252 459.000000,17.708504 458.531342,25.531378 
	C444.136047,26.000000 430.209412,26.000000 416.402954,26.000000 
	C416.402954,40.403305 416.402954,54.122414 416.402954,68.205063 
	C427.740570,68.205063 438.678009,68.205063 449.647217,68.205063 
	C449.647217,75.635826 449.647217,82.688301 449.647217,90.104691 
	C438.361633,90.104691 427.425171,90.104691 416.301514,90.104691 
	C416.301514,106.196136 416.301514,121.912987 416.301514,138.000000 
	C430.733307,138.000000 444.866638,138.000000 459.000000,138.000000 
	C459.000000,145.354248 459.000000,152.708496 459.000000,160.531372 
z"/>
<path fill="#FFFFFF" opacity="1.000000" stroke="none" 
	d="
M459.000000,137.531342 
	C444.866638,138.000000 430.733307,138.000000 416.301514,138.000000 
	C416.301514,121.912987 416.301514,106.196136 416.301514,90.104691 
	C427.425171,90.104691 438.361633,90.104691 449.647217,90.104691 
	C449.647217,82.688301 449.647217,75.635826 449.647217,68.205063 
	C438.678009,68.205063 427.740570,68.205063 416.402954,68.205063 
	C416.402954,54.122414 416.402954,40.403305 416.402954,26.000000 
	C430.209412,26.000000 444.136047,26.000000 458.531342,26.000000 
	C459.000000,63.020893 459.000000,100.041786 459.000000,137.531342 
z"/>
<path fill="#F9C517" opacity="1.000000" stroke="none" 
	d="
M241.721100,114.622955 
	C238.410767,122.486969 235.292480,130.008804 231.965515,138.033997 
	C247.537735,138.033997 262.464050,138.033997 277.692657,138.033997 
	C277.692657,145.739639 277.692657,153.122910 277.692657,160.754517 
	C253.589905,160.754517 229.661407,160.754517 205.472916,160.754517 
	C203.945145,148.331116 205.668213,136.749725 210.761749,124.942589 
	C223.156281,96.211212 234.356689,66.965126 246.079758,37.943192 
	C247.598053,34.184460 249.362579,30.525187 251.293335,26.190517 
	C236.715378,26.190517 222.682419,26.190517 208.328140,26.190517 
	C208.328140,18.304016 208.328140,10.920071 208.328140,3.266274 
	C231.368149,3.266274 254.297104,3.266274 277.803802,3.266274 
	C278.052643,14.632609 278.297852,25.587479 273.329285,36.785957 
	C262.159760,61.960564 252.372192,87.748360 242.033905,113.291328 
	C241.913544,113.588722 241.949921,113.949554 241.721100,114.622955 
z"/>
<path fill="#F9C517" opacity="1.000000" stroke="none" 
	d="
M366.020416,160.833435 
	C345.316406,160.879105 324.612427,160.924774 303.351440,160.727051 
	C302.631958,160.265808 302.422638,160.111420 302.166565,160.020523 
	C302.111053,138.908646 302.022400,117.796799 302.007904,96.684891 
	C301.986938,66.092751 302.019684,35.500572 302.272949,4.351409 
	C302.734222,3.631956 302.888641,3.422668 302.979584,3.166547 
	C310.350250,3.120882 317.720947,3.075217 325.648621,3.272941 
	C326.368042,3.734206 326.577332,3.888600 326.833466,3.979510 
	C326.888977,42.296181 326.945648,80.612854 326.998779,118.929527 
	C327.007294,125.069839 327.000000,131.210175 327.000000,138.029556 
	C340.238007,138.029556 353.164795,138.029556 366.648560,138.272949 
	C367.368042,138.734192 367.577362,138.888580 367.833466,138.979477 
	C367.632141,145.739777 367.430847,152.500061 366.856598,159.732986 
	C366.265808,160.368073 366.111389,160.577362 366.020416,160.833435 
z"/>
<path fill="#F9C517" opacity="1.000000" stroke="none" 
	d="
M302.730927,3.147087 
	C302.888641,3.422668 302.734222,3.631956 302.341431,3.885819 
	C302.011414,3.597258 302.116638,3.314057 302.730927,3.147087 
z"/>
<path fill="#F9C517" opacity="1.000000" stroke="none" 
	d="
M326.852905,3.730872 
	C326.577332,3.888600 326.368042,3.734206 326.114166,3.341437 
	C326.402710,3.011388 326.685913,3.116618 326.852905,3.730872 
z"/>
<path fill="#F9C517" opacity="1.000000" stroke="none" 
	d="
M367.852905,138.730835 
	C367.577362,138.888580 367.368042,138.734192 367.114166,138.341431 
	C367.402710,138.011429 367.685883,138.116638 367.852905,138.730835 
z"/>
<path fill="#F9C517" opacity="1.000000" stroke="none" 
	d="
M302.147095,160.269165 
	C302.422638,160.111420 302.631958,160.265808 302.885834,160.658569 
	C302.977234,160.833450 302.479889,160.870880 302.479889,160.870880 
	C302.479889,160.870880 302.127655,160.517792 302.147095,160.269165 
z"/>
<path fill="#F9C517" opacity="1.000000" stroke="none" 
	d="
M366.269043,160.852921 
	C366.111389,160.577362 366.265808,160.368073 366.658569,160.114212 
	C366.988617,160.402786 366.883362,160.685974 366.269043,160.852921 
z"/>
<path fill="#FFFFFF" opacity="1.000000" stroke="none" 
	d="
M158.000000,105.999985 
	C157.664719,115.073860 157.557068,123.665047 156.907227,132.215027 
	C156.528503,137.197769 151.461044,140.725357 144.846756,140.941635 
	C139.109955,141.129227 134.095596,137.411804 133.068802,132.406952 
	C132.447922,129.380661 132.053146,126.250122 132.044647,123.165085 
	C131.968246,95.384315 131.931549,67.602859 132.089783,39.822784 
	C132.108780,36.487663 132.989822,33.027905 134.123596,29.859316 
	C135.787125,25.210163 139.811783,24.035238 144.401413,23.968845 
	C149.258865,23.898581 153.839859,24.530220 155.787689,29.684372 
	C156.975510,32.827423 157.877380,36.294827 157.905228,39.624931 
	C158.088776,61.582012 157.999985,83.541374 158.000000,105.999985 
z"/>
</svg>