<svg xmlns="http://www.w3.org/2000/svg" viewBox="-30 -30 518 222" width="140" height="42">
  <path fill="#1E1F22" d="M1.000000,161.000000 
    C1.000000,108.645775 1.000000,56.291542 1.468657,3.468657 
    C10.768324,3.000130 19.599344,3.007245 28.430338,2.995506 
    C30.652866,2.992552 32.346527,2.940104 33.098038,6.019833 
    C38.929695,29.918283 45.001095,53.758419 51.045834,77.604553 
    C52.488907,83.297401 54.110794,88.944923 55.650436,94.613297 
    C56.120026,94.526894 56.589619,94.440498 57.059208,94.354103 
    C57.059208,64.027382 57.059208,33.700668 57.059208,3.359105 
    C64.650467,3.359105 71.702423,3.359105 78.591522,3.359105 
    C78.591522,56.094540 78.591522,108.469955 78.591522,160.764984 
    C69.884613,160.764984 61.588085,160.764984 53.377609,160.764984 
    C43.639896,123.150002 33.964306,85.774986 24.288715,48.399967 
    C23.830667,48.474609 23.372622,48.549255 22.914574,48.623898 
    C22.914574,85.960922 22.914574,123.297943 22.914574,161.000000 
    C15.266921,161.000000 8.133460,161.000000 1.000000,161.000000 z"/>
  <path fill="#1E1F22" d="M131.468628,163.000000 
    C130.235077,162.105927 129.645874,160.765793 128.678818,160.384857 
    C114.791924,154.914597 108.454445,144.035095 108.114708,129.868759 
    C107.398666,100.009972 107.113106,70.135086 107.181023,40.268021 
    C107.195122,34.064960 108.788918,27.607052 110.912582,21.720387 
    C115.501457,9.000384 125.473099,2.956303 138.818634,1.359472 
    C142.361282,1.000000 145.722580,1.000000 149.541931,1.000001 
    C153.519455,1.957724 157.034760,2.931045 160.559097,3.870415 
    C174.365768,7.550397 181.561890,21.384146 181.843246,32.246040 
    C182.626236,62.475388 183.054962,92.727249 182.800308,122.963287 
    C182.704269,134.365753 180.913254,145.862701 171.321503,154.292709 
    C166.343262,158.668015 160.841843,161.414551 154.169067,162.648254 
    C146.645752,163.000000 139.291504,163.000000 131.468628,163.000000 
    M158.000000,105.499992 
    C157.999985,83.541374 158.088776,61.582012 157.905228,39.624931 
    C157.877380,36.294827 156.975510,32.827423 155.787689,29.684372 
    C153.839859,24.530220 149.258865,23.898581 144.401413,23.968845 
    C139.811783,24.035238 135.787125,25.210163 134.123596,29.859316 
    C132.989822,33.027905 132.108780,36.487663 132.089783,39.822784 
    C131.931549,67.602859 131.968246,95.384315 132.044647,123.165085 
    C132.053146,126.250122 132.447922,129.380661 133.068802,132.406952 
    C134.095596,137.411804 139.109955,141.129227 144.846756,140.941635 
    C151.461044,140.725357 156.528503,137.197769 156.907227,132.215027 
    C157.557068,123.665047 157.664719,115.073860 158.000000,105.499992 z"/>
  <path fill="#1E1F22" d="M241.721100,114.622955 
    C238.410767,122.486969 235.292480,130.008804 231.965515,138.033997 
    C247.537735,138.033997 262.464050,138.033997 277.692657,138.033997 
    C277.692657,145.739639 277.692657,153.122910 277.692657,160.754517 
    C253.589905,160.754517 229.661407,160.754517 205.472916,160.754517 
    C203.945145,148.331116 205.668213,136.749725 210.761749,124.942589 
    C223.156281,96.211212 234.356689,66.965126 246.079758,37.943192 
    C247.598053,34.184460 249.362579,30.525187 251.293335,26.190517 
    C236.715378,26.190517 222.682419,26.190517 208.328140,26.190517 
    C208.328140,18.304016 208.328140,10.920071 208.328140,3.266274 
    C231.368149,3.266274 254.297104,3.266274 277.803802,3.266274 
    C278.052643,14.632609 278.297852,25.587479 273.329285,36.785957 
    C262.159760,61.960564 252.372192,87.748360 242.033905,113.291328 
    C241.913544,113.588722 241.949921,113.949554 241.721100,114.622955 z"/>
  <path fill="#1E1F22" d="M366.020416,160.833435 
    C345.316406,160.879105 324.612427,160.924774 303.351440,160.727051 
    C302.631958,160.265808 302.422638,160.111420 302.166565,160.020523 
    C302.111053,138.908646 302.022400,117.796799 302.007904,96.684891 
    C301.986938,66.092751 302.019684,35.500572 302.272949,4.351409 
    C302.734222,3.631956 302.888641,3.422668 302.979584,3.166547 
    C310.350250,3.120882 317.720947,3.075217 325.648621,3.272941 
    C326.368042,3.734206 326.577332,3.888600 326.833466,3.979510 
    C326.888977,42.296181 326.945648,80.612854 326.998779,118.929527 
    C327.007294,125.069839 327.000000,131.210175 327.000000,138.029556 
    C340.238007,138.029556 353.164795,138.029556 366.648560,138.272949 
    C367.368042,138.734192 367.577362,138.888580 367.833466,138.979477 
    C367.632141,145.739777 367.430847,152.500061 366.856598,159.732986 
    C366.265808,160.368073 366.111389,160.577362 366.020416,160.833435 z"/>
  <path fill="#1E1F22" d="M459.000000,160.531372 
    C436.549103,161.000000 414.098206,161.000000 391.324402,161.000000 
    C391.324402,108.329124 391.324402,55.982437 391.324402,3.000000 
    C413.576447,3.000000 435.819550,3.000000 458.531342,3.000000 
    C459.000000,10.354252 459.000000,17.708504 458.531342,25.531378 
    C444.136047,26.000000 430.209412,26.000000 416.402954,26.000000 
    C416.402954,40.403305 416.402954,54.122414 416.402954,68.205063 
    C427.740570,68.205063 438.678009,68.205063 449.647217,68.205063 
    C449.647217,75.635826 449.647217,82.688301 449.647217,90.104691 
    C438.361633,90.104691 427.425171,90.104691 416.301514,90.104691 
    C416.301514,106.196136 416.301514,121.912987 416.301514,138.000000 
    C430.733307,138.000000 444.866638,138.000000 459.000000,138.000000 
    C459.000000,145.354248 459.000000,152.708496 459.000000,160.531372 z"/>
</svg>